<?xml version="1.0" encoding="UTF-8"?>
<svg xmlns="http://www.w3.org/2000/svg" xmlns:xlink="http://www.w3.org/1999/xlink" width="48pt" height="48pt" viewBox="0 0 48 48" version="1.1">
<g id="surface1656847">
<path style=" stroke:none;fill-rule:nonzero;fill:rgb(90.980392%,91.764706%,96.470588%);fill-opacity:1;" d="M 42 39 L 6 39 L 6 23 L 24 6 L 42 23 Z M 42 39 "/>
<path style=" stroke:none;fill-rule:nonzero;fill:rgb(77.254902%,79.215686%,91.372549%);fill-opacity:1;" d="M 39 21 L 34 16 L 34 9 L 39 9 Z M 6 39 L 42 39 L 42 44 L 6 44 Z M 6 39 "/>
<path style=" stroke:none;fill-rule:nonzero;fill:rgb(71.764706%,10.980392%,10.980392%);fill-opacity:1;" d="M 24 4.300781 L 4 22.898438 L 6 25.101562 L 24 8.398438 L 42 25.101562 L 44 22.898438 Z M 24 4.300781 "/>
<path style=" stroke:none;fill-rule:nonzero;fill:rgb(84.705882%,26.27451%,8.235294%);fill-opacity:1;" d="M 18 28 L 30 28 L 30 44 L 18 44 Z M 18 28 "/>
<path style=" stroke:none;fill-rule:nonzero;fill:rgb(0.392157%,34.117647%,60.784314%);fill-opacity:1;" d="M 21 17 L 27 17 L 27 23 L 21 23 Z M 21 17 "/>
<path style=" stroke:none;fill-rule:nonzero;fill:rgb(100%,54.117647%,39.607843%);fill-opacity:1;" d="M 27.5 35.5 C 27.199219 35.5 27 35.699219 27 36 L 27 38 C 27 38.300781 27.199219 38.5 27.5 38.5 C 27.800781 38.5 28 38.300781 28 38 L 28 36 C 28 35.699219 27.800781 35.5 27.5 35.5 Z M 27.5 35.5 "/>
<path style=" stroke:none;fill-rule:nonzero;fill:rgb(98.431373%,54.901961%,0%);fill-opacity:1;" d="M 42.292969 47.90625 L 29.894531 47.90625 C 28.894531 47.90625 28.09375 47.105469 28.09375 46.105469 L 28.09375 37.707031 C 28.09375 36.707031 28.894531 35.90625 29.894531 35.90625 L 42.292969 35.90625 C 43.292969 35.90625 44.09375 36.707031 44.09375 37.707031 L 44.09375 46.105469 C 44.09375 47.105469 43.292969 47.90625 42.292969 47.90625 "/>
<path style=" stroke:none;fill-rule:nonzero;fill:rgb(78.039216%,43.137255%,0%);fill-opacity:1;" d="M 38.09375 41.90625 C 38.09375 43.007812 37.191406 43.90625 36.09375 43.90625 C 34.992188 43.90625 34.09375 43.007812 34.09375 41.90625 C 34.09375 40.808594 34.992188 39.90625 36.09375 39.90625 C 37.191406 39.90625 38.09375 40.808594 38.09375 41.90625 "/>
<path style=" stroke:none;fill-rule:nonzero;fill:rgb(21.568627%,27.843137%,30.980392%);fill-opacity:1;" d="M 33.09375 35.90625 L 31.09375 35.90625 L 31.09375 32.90625 C 31.09375 31.207031 32.09375 27.90625 36.09375 27.90625 C 40.09375 27.90625 41.09375 31.207031 41.09375 32.90625 L 41.09375 33.90625 L 39.09375 33.90625 L 39.09375 32.90625 C 39.09375 32.40625 38.894531 29.90625 36.09375 29.90625 C 33.292969 29.90625 33.09375 32.40625 33.09375 32.90625 Z M 33.09375 35.90625 "/>
</g>
</svg>
